# xmcd
#
# Track frame offsets:
#	150
#	10225
#	20540
#	33435
#	40722
#	50607
#	58735
#	67275
#	73885
#	88325
#
# Disc length: 1359
#
# Revision: 2
# Processed by: cddbd v1.5.1PL0 Copyright (c) Steve Scherf et al.
# Submitted via: audiograbber 1.80
# Normalized: r1:DSETVAR1
#
DISCID=91054d0a
DTITLE=Various Artist - Country Classics Vol 1
DYEAR=1900
DGENRE=
TTITLE0=Jimmy Dean - A Thing Called Love
TTITLE1=Ferlin Husky - Wings Of A Dove
TTITLE2=Freddy Fender - You'll Lose A Good Thing
TTITLE3=Dolly Parton - Puppy Love
TTITLE4=Johnny Lee - Red Sails In The Sunset
TTITLE5=Jerry Lee Lewis - Great Balls Of Fire
TTITLE6=Waylon Jennings - Abilene
TTITLE7=Mickey Gilley - The Boy Who Didn't Pass
TTITLE8=Tex Ritter - High Noon
TTITLE9=Ricky Skaggs - Another Song, Another Drink
EXTD=
EXTT0=
EXTT1=
EXTT2=
EXTT3=
EXTT4=
EXTT5=
EXTT6=
EXTT7=
EXTT8=
EXTT9=
PLAYORDER=
